<svg width="6" height="6" viewBox="0 0 6 6" fill="none" xmlns="http://www.w3.org/2000/svg">
<path fill-rule="evenodd" clip-rule="evenodd" d="M5.98657 0.257174C6.00021 0.2231 6.00355 0.185773 5.99618 0.14982C5.9888 0.113867 5.97104 0.080869 5.94508 0.0549169C5.91913 0.0289648 5.88614 0.0111999 5.85018 0.00382471C5.81423 -0.00355049 5.7769 -0.00021172 5.74283 0.0134271L0.287896 2.19552L0.118027 2.26302C0.0859245 2.27583 0.0579862 2.29726 0.0372982 2.32495C0.0166103 2.35263 0.00397777 2.3855 0.00079618 2.41992C-0.00238541 2.45433 0.00400771 2.48896 0.0192694 2.51997C0.034531 2.55098 0.0580672 2.57717 0.0872781 2.59564L0.241023 2.69314L0.241398 2.69389L2.11446 3.88563L3.30617 5.75873L3.30692 5.75948L3.40441 5.91323C3.42295 5.94233 3.44915 5.96575 3.48014 5.98091C3.51112 5.99608 3.54569 6.0024 3.58004 5.99918C3.61439 5.99596 3.64719 5.98333 3.67482 5.96268C3.70245 5.94202 3.72385 5.91414 3.73665 5.8821L5.98657 0.257174ZM5.29922 0.965915L5.47584 0.524171L5.03411 0.700793L2.22395 3.51101L2.3507 3.59163C2.37396 3.6064 2.39368 3.62612 2.40845 3.64938L2.48907 3.77613L5.29922 0.965915Z" fill="white" fill-opacity="0.85"/>
</svg>
