<svg width="196" height="335" viewBox="0 0 196 335" fill="none" xmlns="http://www.w3.org/2000/svg">
<g id="login_image">
<g id="Female">
<path id="Vector" d="M139.921 327.014H131.246L127.118 295.236H139.922L139.921 327.014Z" fill="#BC8F92"/>
<path id="Vector_2" d="M142.134 335L114.161 334.999V334.663C114.161 331.921 115.308 329.291 117.35 327.352C119.392 325.413 122.161 324.324 125.048 324.323H125.049L142.134 324.324L142.134 335Z" fill="#2F2E41"/>
<path id="Vector_3" d="M55.3667 326.361L47.1414 323.742L53.8647 292.366L66.0043 296.232L55.3667 326.361Z" fill="#BC8F92"/>
<path id="Vector_4" d="M54.7915 334.601L28.2695 326.156L28.382 325.838C29.3 323.238 31.2679 321.091 33.8528 319.868C36.4378 318.646 39.4281 318.449 42.166 319.321L42.1666 319.321L58.3654 324.479L54.7915 334.601Z" fill="#2F2E41"/>
<path id="Vector_5" d="M66.0612 162.782L47.2746 313.705L65.7005 315.181C65.7005 315.181 94.6845 166.796 103.62 184.373C112.555 201.951 123.503 311.887 123.503 311.887H141.79C141.79 311.887 146.48 140.356 127.333 131.87L66.0612 162.782Z" fill="#2F2E41"/>
<path id="Vector_6" d="M114.756 38.4434C116.529 28.8829 109.806 19.7672 99.7386 18.0829C89.6714 16.3987 80.0726 22.7835 78.299 32.344C76.5255 41.9045 83.2488 51.0201 93.316 52.7044C103.383 54.3887 112.982 48.0038 114.756 38.4434Z" fill="#BC8F92"/>
<path id="Vector_7" d="M85.5276 59.4394L109.143 61.2577C109.143 61.2577 127.971 61.5607 135.63 66.4097C143.289 71.2586 128.29 101.261 128.29 101.261C128.29 101.261 124.391 113.157 127.333 118.536C136.878 135.989 135.463 149.429 135.463 149.429C135.463 149.429 115.844 153.691 82.0174 162.176C82.0174 162.176 60.9553 170.056 61.5936 165.813C62.2318 161.57 68.6142 113.081 68.6142 113.081V62.773L85.5276 59.4394Z" fill="#3F3D56"/>
<path id="Vector_8" d="M126.838 33.4888C125.894 28.4833 123.777 21.3826 119.062 15.9989C119.21 15.9997 119.358 16.0059 119.507 16.0018C121.127 15.9569 122.971 15.4715 123.641 14.0695C123.857 13.5079 123.911 12.9016 123.797 12.3135C123.683 11.7254 123.406 11.1768 122.994 10.7247C122.159 9.8315 121.159 9.08979 120.044 8.53561C121.181 9.19125 122.789 9.80023 123.697 8.87672C123.93 8.59828 124.075 8.26245 124.114 7.90863C124.153 7.5548 124.086 7.19762 123.919 6.879C123.575 6.24686 123.091 5.69262 122.501 5.25396C120.589 3.64829 118.497 2.24671 116.264 1.07441C114.534 0.167012 112.259 -0.56164 110.707 0.599116C109.125 1.78161 109.379 4.08425 109.786 5.95644C108.9 5.4647 107.904 5.17933 106.88 5.12376C106.368 5.10988 105.867 5.26405 105.461 5.56026C105.055 5.85647 104.769 6.27661 104.652 6.74978C104.637 7.12317 104.724 7.49383 104.904 7.8259C105.085 8.15797 105.352 8.44019 105.681 8.64522C99.5786 7.69216 91.7809 8.77356 81.8119 13.154C81.8119 13.154 72.1459 16.2138 71.6549 28.2975C71.6052 30.2302 71.8309 32.1603 72.326 34.0355C72.8706 36.226 74.8079 46.9723 72.4843 51.3153L84.1248 55.2542L84.2582 48.6325C75.2111 36.2302 79.6804 31.6791 83.203 24.2198C83.2088 24.2063 83.2185 24.1945 83.231 24.1858C83.2435 24.1772 83.2582 24.172 83.2736 24.1709C83.289 24.1698 83.3045 24.1728 83.3182 24.1796C83.3319 24.1864 83.3433 24.1966 83.3512 24.2092C84.0022 25.27 86.4969 28.9062 95.0817 28.9062L91.7644 25.7558C91.7644 25.7558 106.361 31.4266 111.669 31.4266C111.669 31.4266 115.65 33.9469 111.669 37.7275C107.688 41.508 98.9754 47.0725 103.62 54.0034C108.264 60.9344 107.864 63.3933 107.864 63.3933L118.48 57.7226C118.48 57.7226 124.964 45.5395 126.114 41.9519C127.059 39.2254 127.307 36.3245 126.838 33.4888V33.4888Z" fill="#2F2E41"/>
<g id="Bubble">
<path id="Vector_9" d="M156.333 240.457L148.18 230.493L146.078 230.111C143.96 229.725 93.8965 220.709 67.2465 223.634C64.7943 223.903 62.3147 224.213 59.9164 224.513C49.0529 225.87 38.7915 227.152 28.9139 225.255C18.5507 223.264 7.1701 215.645 6.49075 205.45C6.02546 198.466 10.7949 190.814 18.6418 185.955C26.5355 181.067 36.3585 179.052 45.7429 177.408C73.9645 172.476 102.6 169.99 131.295 169.979V169.979C132.952 169.979 134.609 169.988 136.264 170.004C152.19 170.165 168.653 171.39 181.169 179.202C192.328 186.167 200.139 201.699 193.506 212.849C190.464 217.963 184.984 221.664 179.164 225.593C176.909 227.117 174.576 228.692 172.344 230.387C168.656 233.158 165.447 236.46 162.832 240.171C162.483 240.685 162.008 241.112 161.448 241.414C160.889 241.717 160.26 241.886 159.616 241.908C159.561 241.91 159.506 241.911 159.452 241.911C158.849 241.913 158.254 241.783 157.713 241.531C157.172 241.278 156.7 240.911 156.333 240.457V240.457Z" fill="#3F3FFF"/>
<path id="Vector_10" d="M40.7759 194.663H153.417C154.066 194.662 154.688 194.416 155.147 193.98C155.605 193.544 155.863 192.952 155.863 192.336C155.863 191.719 155.605 191.128 155.147 190.692C154.688 190.255 154.066 190.009 153.417 190.008H40.7759C40.1267 190.009 39.5046 190.255 39.046 190.692C38.5874 191.128 38.3299 191.719 38.3299 192.336C38.3299 192.952 38.5874 193.544 39.046 193.98C39.5046 194.416 40.1267 194.662 40.7759 194.663V194.663Z" fill="white" fill-opacity="0.87"/>
<path id="Vector_11" d="M40.7759 208.949H153.417C153.739 208.95 154.058 208.891 154.356 208.774C154.654 208.658 154.925 208.487 155.153 208.271C155.381 208.055 155.562 207.798 155.686 207.516C155.81 207.233 155.874 206.93 155.874 206.624C155.874 206.318 155.811 206.015 155.688 205.733C155.565 205.45 155.384 205.193 155.157 204.977C154.929 204.76 154.658 204.588 154.361 204.471C154.063 204.354 153.744 204.294 153.422 204.294H40.7759C40.1267 204.296 39.5046 204.541 39.046 204.978C38.5874 205.414 38.3299 206.005 38.3299 206.622C38.3299 207.238 38.5874 207.83 39.046 208.266C39.5046 208.702 40.1267 208.948 40.7759 208.949V208.949Z" fill="white" fill-opacity="0.87"/>
</g>
<path id="Vector_12" d="M137.943 98.8566L125.556 101.716L125.463 125.523L111.531 171.188C110.416 172.026 109.563 173.137 109.066 174.402C108.569 175.667 108.447 177.037 108.712 178.364C108.977 179.69 109.619 180.923 110.569 181.927C111.52 182.931 112.742 183.669 114.102 184.06C115.463 184.451 116.911 184.481 118.288 184.147C119.665 183.812 120.92 183.125 121.915 182.161C122.91 181.197 123.609 179.993 123.934 178.678C124.26 177.364 124.2 175.99 123.762 174.706L140.417 127.432L137.943 98.8566Z" fill="#BC8F92"/>
<path id="Vector_13" d="M55.5011 98.356L70.3614 102.388L70.4551 126.195L84.3871 171.86C85.5023 172.698 86.3546 173.809 86.8516 175.074C87.3486 176.339 87.4712 177.709 87.2062 179.036C86.9412 180.362 86.2986 181.595 85.3483 182.599C84.3979 183.603 83.1761 184.341 81.8154 184.732C80.4548 185.123 79.0072 185.153 77.6299 184.819C76.2526 184.484 74.9981 183.797 74.0027 182.833C73.0072 181.869 72.3089 180.665 71.9834 179.351C71.6578 178.036 71.7175 176.662 72.1561 175.378L55.5011 128.104V98.356Z" fill="#BC8F92"/>
<path id="Vector_14" d="M119.355 63.9852L122.424 63.0347C124.148 62.5009 126.022 62.6245 127.652 63.3791V63.3791C127.652 63.3791 136.587 63.9852 137.864 70.0464C139.14 76.1076 142.245 129.085 142.245 129.085L123.318 123.366L119.355 63.9852Z" fill="#3F3D56"/>
<path id="Vector_15" d="M76.2731 63.9852L70.8397 63.7257L69.1191 62.9087C69.1191 62.9087 59.0406 63.9852 57.7641 70.0464C56.4876 76.1076 52.7734 130.719 52.7734 130.719L71.7 125.817L76.2731 63.9852Z" fill="#3F3D56"/>
</g>
<path id="Vector_16" d="M187.204 39.0081L186.003 40.2014L184.809 39L184.008 39.7954L185.202 40.9972L184 42.1909L184.796 42.9919L185.997 41.7986L187.191 43L187.992 42.2046L186.798 41.0028L188 39.8091L187.204 39.0081Z" fill="#FFFF3F"/>
<path id="Vector_17" d="M4.00536 45.0102L2.50324 46.5018L1.01174 45L0.0101627 45.9943L1.50213 47.4965L0 48.9886L0.994636 49.9898L2.4963 48.4982L3.98826 50L4.98983 49.0057L3.49787 47.5035L5 46.0114L4.00536 45.0102Z" fill="#FFFF3F"/>
<path id="Vector_18" d="M174.806 113.012L173.004 114.802L171.214 113L170.012 114.193L171.803 115.996L170 117.786L171.194 118.988L172.996 117.198L174.786 119L175.988 117.807L174.197 116.004L176 114.214L174.806 113.012Z" fill="#FFFF3F"/>
</g>
</svg>
