<svg width="161" height="317" viewBox="0 0 161 317" fill="none" xmlns="http://www.w3.org/2000/svg">
<g id="login_image">
<path id="Vector" d="M111.816 309.45H104.027L100.322 279.409H111.816L111.816 309.45Z" fill="#9F616A"/>
<path id="Vector_2" d="M113.802 317L88.6887 316.999V316.681C88.6889 314.089 89.7188 311.603 91.5518 309.77C93.3849 307.937 95.871 306.907 98.4634 306.907H98.464L113.802 306.908L113.802 317Z" fill="#2F2E41"/>
<path id="Vector_3" d="M35.9065 308.833L28.5222 306.358L34.558 276.697L45.4564 280.351L35.9065 308.833Z" fill="#9F616A"/>
<path id="Vector_4" d="M35.3901 316.623L11.5799 308.64L11.6809 308.339C12.5051 305.881 14.2717 303.851 16.5924 302.696C18.913 301.54 21.5976 301.354 24.0555 302.178L24.0561 302.178L38.5985 307.054L35.3901 316.623Z" fill="#2F2E41"/>
<path id="Vector_5" d="M45.5075 154.196L28.6418 296.87L45.1837 298.265C45.1837 298.265 71.2041 157.991 79.2259 174.607C87.2477 191.224 97.0761 295.151 97.0761 295.151H113.493C113.493 295.151 117.704 132.996 100.514 124.974L45.5075 154.196Z" fill="#2F2E41"/>
<path id="Vector_6" d="M89.223 36.6543C90.8152 27.6164 84.7793 18.9991 75.7415 17.4068C66.7036 15.8146 58.0862 21.8505 56.494 30.8883C54.9018 39.9262 60.9377 48.5436 69.9755 50.1358C79.0134 51.728 87.6308 45.6921 89.223 36.6543Z" fill="#9F616A"/>
<path id="Vector_7" d="M62.9835 56.5026L84.1839 58.2215C84.1839 58.2215 101.087 58.508 107.963 63.0918C114.839 67.6757 101.373 96.0385 101.373 96.0385C101.373 96.0385 97.8729 107.284 100.514 112.369C109.084 128.867 107.813 141.573 107.813 141.573C107.813 141.573 90.2003 145.602 59.8321 153.623C59.8321 153.623 40.9236 161.072 41.4967 157.061C42.0697 153.05 47.7995 107.212 47.7995 107.212V59.6539L62.9835 56.5026Z" fill="#3F3D56"/>
<path id="Vector_8" d="M100.07 31.9706C99.2221 27.2387 97.322 20.5261 93.089 15.4367C93.2223 15.4375 93.3551 15.4434 93.4885 15.4395C94.9433 15.397 96.5987 14.9382 97.1997 13.6128C97.3936 13.0819 97.4421 12.5087 97.34 11.9528C97.238 11.3968 96.9891 10.8782 96.6193 10.4508C95.869 9.60645 94.9716 8.90528 93.9708 8.3814C94.9917 9.0012 96.4347 9.57689 97.2497 8.70386C97.4591 8.44064 97.5892 8.12317 97.6245 7.78869C97.6599 7.45421 97.5992 7.11655 97.4495 6.81535C97.1403 6.21776 96.7059 5.69382 96.176 5.27914C94.4598 3.76123 92.5821 2.43627 90.5767 1.32806C89.0242 0.47026 86.9819 -0.218561 85.5882 0.878744C84.1685 1.9966 84.3965 4.17337 84.7613 5.94322C83.9662 5.47836 83.0723 5.20859 82.1528 5.15606C81.6934 5.14294 81.2435 5.28868 80.879 5.56869C80.5145 5.84871 80.2578 6.24588 80.1521 6.69319C80.1389 7.04616 80.217 7.39657 80.379 7.71048C80.5409 8.0244 80.7811 8.29119 81.0764 8.48501C75.5978 7.58406 68.5974 8.60634 59.6477 12.7473C59.6477 12.7473 50.9701 15.6399 50.5293 27.0631C50.4846 28.8901 50.6872 30.7147 51.1317 32.4874C51.6206 34.5582 53.3598 44.717 51.2738 48.8226L61.7241 52.5462L61.8439 46.2864C53.7218 34.5621 57.7341 30.2598 60.8966 23.2083C60.9018 23.1954 60.9105 23.1843 60.9217 23.1761C60.9329 23.168 60.9461 23.1631 60.96 23.162C60.9738 23.161 60.9876 23.1638 60.9999 23.1702C61.0122 23.1766 61.0225 23.1863 61.0296 23.1982C61.614 24.201 63.8536 27.6385 71.5607 27.6385L68.5825 24.6602C68.5825 24.6602 81.6866 30.0211 86.4518 30.0211C86.4518 30.0211 90.0256 32.4036 86.4518 35.9775C82.8781 39.5514 75.0563 44.8117 79.2258 51.3638C83.3954 57.9158 83.0363 60.2404 83.0363 60.2404L92.5666 54.8796C92.5666 54.8796 98.3877 43.3625 99.42 39.971C100.268 37.3935 100.491 34.6512 100.07 31.9706Z" fill="#2F2E41"/>
<path id="Vector_9" d="M0 164.245C0 162.036 1.79086 160.245 4 160.245H156.992C159.201 160.245 160.992 162.036 160.992 164.245V245.962C160.992 248.171 159.201 249.962 156.992 249.962H144.542C142.333 249.962 140.542 251.753 140.542 253.962V264.148C140.542 267.822 136.005 269.553 133.559 266.812L119.705 251.298C118.946 250.448 117.861 249.962 116.722 249.962H4C1.79086 249.962 0 248.171 0 245.962V164.245Z" fill="#3F3FFF"/>
<path id="Vector_10" d="M134.513 187.783H26.4789V192.02H134.513V187.783Z" fill="white"/>
<path id="Vector_11" d="M134.513 203.67H26.4789V207.907H134.513V203.67Z" fill="white"/>
<path id="Vector_12" d="M134.513 219.558H26.4789V223.794H134.513V219.558Z" fill="white"/>
<path id="Vector_13" d="M110.04 93.7651L98.9194 96.4683L98.8352 118.974L86.3278 162.143C85.3266 162.935 84.5614 163.985 84.1153 165.181C83.6691 166.377 83.559 167.672 83.7969 168.926C84.0349 170.18 84.6117 171.345 85.4648 172.294C86.318 173.244 87.4149 173.941 88.6364 174.311C89.858 174.681 91.1576 174.709 92.394 174.393C93.6305 174.076 94.7567 173.427 95.6504 172.516C96.544 171.605 97.171 170.466 97.4633 169.224C97.7555 167.981 97.7018 166.682 97.3081 165.468L112.26 120.779L110.04 93.7651Z" fill="#9F616A"/>
<path id="Vector_14" d="M36.0271 93.2919L49.368 97.1036L49.4521 119.609L61.9596 162.778C62.9607 163.57 63.7259 164.621 64.1721 165.817C64.6182 167.012 64.7283 168.308 64.4904 169.562C64.2525 170.815 63.6756 171.98 62.8225 172.93C61.9693 173.879 60.8724 174.576 59.6509 174.946C58.4293 175.316 57.1298 175.345 55.8933 175.028C54.6568 174.712 53.5306 174.063 52.637 173.151C51.7433 172.24 51.1164 171.101 50.8241 169.859C50.5319 168.616 50.5855 167.318 50.9792 166.104L36.0271 121.414V93.2919Z" fill="#9F616A"/>
<path id="Vector_15" d="M93.3517 60.8L96.1075 59.9013C97.6548 59.3968 99.3377 59.5136 100.801 60.227C100.801 60.227 108.822 60.7999 109.968 66.5298C111.114 72.2596 113.901 122.342 113.901 122.342L96.9099 116.935L93.3517 60.8Z" fill="#3F3D56"/>
<path id="Vector_16" d="M54.6753 60.8L49.7974 60.5546L48.2527 59.7823C48.2527 59.7823 39.2047 60.7999 38.0587 66.5298C36.9128 72.2596 33.5783 123.886 33.5783 123.886L50.5697 119.252L54.6753 60.8Z" fill="#3F3D56"/>
</g>
</svg>
