<svg width="263" height="282" viewBox="0 0 263 282" fill="none" xmlns="http://www.w3.org/2000/svg">
<g id="new_password">
<path id="Vector" d="M47.4767 85.882L45.2621 72.3339L39.0092 70.7706C39.0092 70.7706 34.0464 69.242 32.8865 79.2382C31.7265 89.2344 32.6258 107.898 32.6258 107.898L18.8972 151.372C17.843 151.873 16.9555 152.667 16.341 153.66C15.7265 154.652 15.411 155.8 15.4323 156.967C15.4535 158.134 15.8106 159.27 16.4609 160.24C17.1111 161.209 18.0269 161.97 19.0986 162.432C20.1703 162.895 21.3525 163.038 22.5037 162.846C23.6549 162.654 24.7263 162.134 25.5897 161.349C26.4531 160.563 27.0718 159.546 27.3718 158.418C27.6718 157.29 27.6404 156.099 27.2813 154.989L45.1318 114.151L47.4767 85.882Z" fill="#FFB7B7"/>
<path id="Vector_2" d="M85.5008 75.2204L82.218 61.8907L87.3549 57.9979C87.3549 57.9979 91.319 54.6435 96.3106 63.3814C101.302 72.1194 107.803 89.6372 107.803 89.6372L137.499 124.23C138.665 124.277 139.793 124.659 140.748 125.33C141.703 126.001 142.444 126.934 142.883 128.015C143.321 129.097 143.439 130.282 143.221 131.429C143.004 132.575 142.461 133.635 141.657 134.481C140.852 135.327 139.821 135.923 138.687 136.198C137.553 136.474 136.363 136.416 135.261 136.033C134.159 135.649 133.19 134.957 132.471 134.037C131.752 133.117 131.314 132.01 131.208 130.848L98.7567 100.298L85.5008 75.2204Z" fill="#FFB7B7"/>
<path id="Vector_3" d="M111.163 274.782L118.61 274.781L122.153 246.058L111.162 246.059L111.163 274.782Z" fill="#FFB7B7"/>
<path id="Vector_4" d="M109.263 272.35L123.929 272.35H123.929C126.408 272.35 128.785 273.335 130.538 275.087C132.29 276.84 133.275 279.217 133.275 281.695V281.999L109.264 282L109.263 272.35Z" fill="#2F2E41"/>
<path id="Vector_5" d="M17.6227 274.782L25.0692 274.781L28.6121 246.058L17.6211 246.059L17.6227 274.782Z" fill="#FFB7B7"/>
<path id="Vector_6" d="M15.7231 272.35L30.3883 272.35H30.3889C32.8675 272.35 35.2445 273.335 36.9972 275.087C38.7498 276.84 39.7345 279.217 39.7347 281.695V281.999L15.7235 282L15.7231 272.35Z" fill="#2F2E41"/>
<path id="Vector_7" d="M63.294 49.6919C74.4175 49.6919 83.4348 40.6746 83.4348 29.5511C83.4348 18.4277 74.4175 9.4104 63.294 9.4104C52.1706 9.4104 43.1533 18.4277 43.1533 29.5511C43.1533 40.6746 52.1706 49.6919 63.294 49.6919Z" fill="#2F2E41"/>
<path id="Vector_8" d="M47.5731 18.6918C50.8278 15.4371 51.4874 10.8199 49.0464 8.37887C46.6054 5.93787 41.9882 6.59747 38.7335 9.85214C35.4788 13.1068 34.8192 17.7241 37.2602 20.1651C39.7012 22.6061 44.3185 21.9465 47.5731 18.6918Z" fill="#2F2E41"/>
<path id="Vector_9" d="M84.2861 12.2958C85.6421 9.12121 83.3101 5.08194 79.0773 3.27384C74.8445 1.46575 70.3138 2.57351 68.9578 5.7481C67.6017 8.9227 69.9337 12.962 74.1665 14.7701C78.3993 16.5782 82.93 15.4704 84.2861 12.2958Z" fill="#2F2E41"/>
<path id="Vector_10" d="M78.9313 42.5581C83.4595 34.2747 80.4152 23.8888 72.1317 19.3607C63.8483 14.8325 53.4624 17.8768 48.9343 26.1603C44.4061 34.4437 47.4504 44.8296 55.7339 49.3577C64.0173 53.8859 74.4032 50.8416 78.9313 42.5581Z" fill="#FFB7B7"/>
<path id="Vector_11" d="M45.9718 23.6076C49.8779 26.2998 54.5141 27.7325 59.258 27.7136C57.5658 28.8869 55.6393 29.6795 53.6113 30.0367C59.9187 31.3896 66.4375 31.4263 72.7597 30.1442C74.165 29.9189 75.521 29.4532 76.7682 28.7675C77.3897 28.4204 77.9312 27.9464 78.3574 27.3763C78.7837 26.8062 79.0852 26.1527 79.2424 25.4585C79.6625 23.0585 77.7924 20.878 75.849 19.4085C72.8734 17.1929 69.4426 15.6665 65.8047 14.9395C62.1668 14.2126 58.4128 14.3033 54.8143 15.2052C52.4645 15.8126 50.1107 16.8388 48.5845 18.7258C47.0583 20.6128 46.6062 23.5219 48.0603 25.465L45.9718 23.6076Z" fill="#2F2E41"/>
<path id="Vector_12" d="M55.3663 56.5872L38.4479 70.404L53.2303 105.651L53.5122 111.29C53.5122 111.29 38.1667 125.439 28.6719 164.963C19.177 204.487 0 257.004 0 257.004L38.3644 266.39L65.0384 176.983L99.0414 247.125L103.879 267.872L133.534 259.639L122.089 203.964L94.0175 117.542L96.3226 93.6675C96.3226 93.6675 101.46 81.7506 92.5356 69.134L89.7365 57.2789L75.2469 54.8091L55.3663 56.5872Z" fill="#2F2E41"/>
<path id="Vector_13" d="M193.488 58.22C193.488 58.22 147.341 77.173 142.397 79.2331C137.453 81.2932 134.981 86.2374 134.981 91.1817C134.981 96.1259 131.272 160.642 193.488 191.835C193.488 191.835 199.134 193.397 203.418 191.835C207.702 190.273 262.089 163.903 262.089 90.9756C262.089 90.9756 262.089 83.5593 253.436 79.4391C244.784 75.3189 202.951 58.22 202.951 58.22C202.951 58.22 197.814 55.9539 193.488 58.22Z" fill="#3F3FFF"/>
<path id="Vector_14" opacity="0.2" d="M198.432 73.0527V174.16C198.432 174.16 244.99 151.749 244.578 92.8298L198.432 73.0527Z" fill="black"/>
</g>
</svg>
