<svg width="228" height="130" viewBox="0 0 228 130" fill="none" xmlns="http://www.w3.org/2000/svg">
<g id="password_reset">
<path id="Vector" d="M102.056 113.895C97.2619 113.15 94.3489 108.962 95.13 103.937C95.9231 98.836 100.034 95.6833 104.905 96.4406C109.777 97.198 112.617 101.347 111.811 106.531C111.017 111.637 107.006 114.665 102.056 113.895ZM108.197 87.4599L104.385 86.8673C103.435 86.7155 102.576 86.2126 101.979 85.4582C101.382 84.7038 101.09 83.7527 101.161 82.7933L101.191 82.4076C101.534 74.5158 105.547 67.1279 113.117 60.4637C119.982 54.5312 124.134 49.9445 125.051 44.0461C126.111 37.2265 122.312 32.5584 114.627 31.2388C111.62 30.7712 110.867 30.2883 107.837 31.003C107.175 31.1634 106.487 31.1888 105.815 31.0777C105.143 30.9666 104.5 30.7212 103.925 30.3563C103.367 30.0056 102.886 29.5462 102.51 29.0056C102.134 28.4649 101.871 27.854 101.736 27.2094C101.476 25.9672 101.697 24.6728 102.355 23.5874C103.012 22.502 104.057 21.7066 105.278 21.3618C110.478 19.9871 115.906 19.7051 121.22 20.5335C137.881 23.1236 139.548 35.3943 138.119 44.5859C136.721 53.5763 130.969 59.1879 122.996 66.1344C116.352 71.8947 113.238 77.272 112.583 84.1143C112.525 84.6262 112.364 85.1211 112.109 85.5691C111.855 86.0172 111.513 86.4093 111.103 86.7218C110.693 87.0342 110.225 87.2607 109.725 87.3875C109.226 87.5144 108.706 87.539 108.197 87.4599L108.197 87.4599Z" fill="#3F3FFF"/>
<path id="Vector_2" d="M171.348 126.451C166.599 125.456 163.909 121.121 164.952 116.145C166.011 111.092 170.282 108.158 175.107 109.17C179.932 110.181 182.551 114.473 181.474 119.607C180.415 124.665 176.25 127.479 171.348 126.451ZM178.864 100.373L175.088 99.5822C174.147 99.3808 173.316 98.8337 172.759 98.0491C172.203 97.2645 171.961 96.2995 172.081 95.345L172.131 94.9614C172.887 87.0985 177.281 79.9306 185.19 73.6718C192.356 68.1067 196.742 63.7436 197.967 57.9013C199.382 51.1465 195.832 46.2859 188.228 44.566C185.249 43.9417 184.523 43.42 181.459 43.9751C180.79 44.1006 180.101 44.09 179.436 43.9439C178.771 43.7978 178.141 43.5191 177.586 43.1246C177.048 42.7452 176.591 42.2612 176.244 41.7016C175.897 41.142 175.665 40.5182 175.564 39.8674C175.37 38.6134 175.659 37.3322 176.372 36.2828C177.086 35.2333 178.171 34.4937 179.409 34.2133C184.673 33.1125 190.108 33.115 195.372 34.2204C211.874 37.6789 212.896 50.02 210.988 59.1242C209.122 68.0292 203.085 73.3321 194.759 79.8517C187.822 85.2564 184.431 90.4634 183.419 97.262C183.334 97.7702 183.147 98.2559 182.87 98.6901C182.592 99.1242 182.23 99.4978 181.804 99.7884C181.379 100.079 180.899 100.281 180.394 100.381C179.889 100.482 179.368 100.479 178.864 100.373Z" fill="#3F3FFF"/>
<path id="Vector_3" d="M44.0608 102.479C39.2108 102.62 35.5834 99.0331 35.4358 93.9503C35.2859 88.7898 38.7536 84.9407 43.6813 84.7976C48.6095 84.6544 52.1575 88.2164 52.3097 93.4602C52.4598 98.6253 49.0677 102.334 44.0608 102.479ZM45.2812 75.3674L41.4248 75.4794C40.463 75.5033 39.5273 75.1653 38.8028 74.5323C38.0783 73.8993 37.6177 73.0174 37.5122 72.0612L37.4713 71.6765C36.3709 63.8543 38.9702 55.8588 45.199 47.9267C50.868 40.8424 54.1146 35.5759 53.9413 29.6092C53.741 22.7105 49.1544 18.813 41.3582 18.9159C38.3159 19.0042 37.4882 18.6665 34.639 19.9214C34.0171 20.1998 33.3456 20.3501 32.6644 20.3633C31.9832 20.3766 31.3063 20.2525 30.6741 19.9986C30.0621 19.7553 29.5053 19.3913 29.0369 18.9283C28.5686 18.4652 28.1983 17.9125 27.9482 17.3033C27.4663 16.1293 27.448 14.8162 27.8968 13.6291C28.3456 12.4421 29.2281 11.4696 30.3661 10.908C35.2281 8.60872 40.5139 7.34221 45.89 7.18839C62.7438 6.69885 66.6187 18.4604 66.8888 27.7585C67.1529 36.8531 62.5202 43.4189 55.9465 51.702C50.4632 58.5767 48.3815 64.4313 48.9841 71.2785C49.02 71.7925 48.9518 72.3084 48.7834 72.7953C48.6149 73.2823 48.3498 73.7301 48.004 74.112C47.6582 74.4939 47.2387 74.802 46.7708 75.0177C46.3029 75.2334 45.7962 75.3524 45.2812 75.3674L45.2812 75.3674Z" fill="#3F3FFF"/>
</g>
</svg>
