<svg width="1832" height="1361" viewBox="0 0 1832 1361" fill="none" xmlns="http://www.w3.org/2000/svg">
<g id="login_image">
<path id="Vector" d="M1664.73 352.79C1459.64 69.5731 1026.39 -45.312 600.308 78.422C375.051 143.837 157.862 274.904 50.2282 528.693C-142.179 982.369 261.804 1127.26 525.965 1173.44C653.698 1195.77 774.002 1233.28 883.936 1284.35C1081.72 1376.23 1431.81 1457.64 1695.8 1074.93C1887.14 797.539 1801.34 541.441 1664.73 352.79Z" fill="#3F3FFF"/>
<path id="Vector_2" d="M482.259 390.093C481.677 385.494 480.501 380.99 478.759 376.694C478.537 375.881 478.149 375.124 477.618 374.47C477.087 373.816 476.426 373.28 475.676 372.896C474.675 372.635 473.625 372.624 472.617 372.862L456.911 375.265C455.597 375.325 454.338 375.814 453.328 376.658C451.282 378.809 453.296 382.274 453.234 385.243C453.163 388.58 450.198 391.29 446.982 392.186C443.7 392.85 440.314 392.808 437.049 392.063L415.087 388.65C421.555 386.584 427.312 382.742 431.701 377.561C434.592 374.137 436.129 367.744 431.952 366.122C430.711 365.782 429.417 365.678 428.138 365.816C418.188 365.893 410.358 357.584 401.043 354.085C395.081 351.99 388.609 351.834 382.553 353.64C376.497 355.445 371.168 359.12 367.326 364.137L379.025 364.702C380.126 364.641 381.217 364.932 382.141 365.533C384.705 367.64 381.518 371.687 381.879 374.986C382.348 379.272 388.039 380.187 392.328 380.621C396.618 381.054 402.059 384.54 399.996 388.326C378.436 395.753 356.497 373.807 333.855 376.509C328.125 377.192 322.714 379.444 317.119 380.86C282.941 389.508 247.607 366.433 212.693 371.32C204.931 372.643 197.302 374.656 189.897 377.333C185.145 378.893 180.189 380.58 176.736 384.199C173.283 387.818 171.969 394.007 175.24 397.791C166.225 398.534 157.149 397.671 148.435 395.243C150.791 396.553 152.752 398.473 154.11 400.802C155.469 403.131 156.175 405.783 156.156 408.48C142.079 410.776 128.375 414.955 115.413 420.905C117.832 424.928 120.658 428.693 123.846 432.14L106.025 443.59C112.046 445.107 115.158 453.318 111.657 458.446C117.9 455.669 121.769 448.483 128.444 447.027C132.818 446.072 137.268 447.861 141.417 449.542C145.565 451.223 150.125 452.853 154.42 451.592C158.715 450.33 161.883 444.76 159.154 441.212C177.512 435.855 196.484 432.89 215.6 432.391C217.075 432.206 218.571 432.49 219.875 433.203C222.364 434.93 221.709 438.659 221.575 441.685C221.441 444.712 223.799 448.689 226.503 447.325C223.322 450.084 226.042 455.279 229.094 458.18C232.147 461.082 235.826 465.086 233.957 468.86C233.469 469.845 232.642 470.633 232.173 471.627C230.787 474.561 232.987 477.982 235.581 479.931C238.175 481.879 241.353 483.241 243.155 485.939C244.957 488.637 244.138 493.36 240.916 493.737L231.757 482.106C228.628 485.351 226.483 489.417 225.57 493.833C235.282 501.773 236.743 517.936 228.612 527.49C224.457 532.372 218.548 535.339 213.391 539.147C208.233 542.956 203.461 548.378 203.474 554.79C203.497 565.867 202.592 576.157 206.742 586.427C214.395 605.364 223.23 623.8 233.196 641.628C235.814 646.309 239.196 651.44 244.498 652.246C237.797 635.932 231.766 619.364 226.403 602.543C229.896 602.556 233.932 602.834 235.98 605.664C237.676 608.008 237.311 611.194 237.838 614.039C238.508 616.795 239.626 619.422 241.146 621.816L273.142 678.819C275.794 683.544 278.837 688.617 283.906 690.53C287.147 691.754 290.897 691.523 293.88 693.285C296.218 694.665 297.793 697.116 300.177 698.417C306.917 702.094 316.29 695.042 322.589 699.432C324.39 700.688 325.536 702.682 327.195 704.119C333.013 709.158 342.556 705.787 349.271 709.546C353.6 711.968 355.843 716.813 358.151 721.204C363.934 732.201 373.29 742.975 385.683 743.851C389.576 744.126 393.552 743.388 397.358 744.254C401.163 745.12 404.909 748.441 404.298 752.296C403.251 758.905 406.516 766.142 405.639 772.775C404.042 784.859 386.904 790.169 385.432 802.268C385.11 804.917 385.615 807.652 384.984 810.245C384.211 813.423 381.824 816.011 380.976 819.169C379.369 825.156 383.658 831.114 388.369 835.141C393.08 839.168 398.699 842.641 401.275 848.279C403.997 854.238 402.66 861.186 403.545 867.678C405.478 881.849 417.716 892.355 430.311 899.129C434.149 901.193 438.269 903.191 440.753 906.771C443.995 911.445 443.672 917.605 444.754 923.189C447.406 936.864 458.916 948.132 459.243 962.058C459.475 971.956 453.974 980.935 450.688 990.274C447.607 999.223 446.492 1008.73 447.419 1018.15C448.346 1027.57 451.294 1036.67 456.06 1044.85C458.519 1049 461.459 1052.91 463.198 1057.42C466.301 1065.45 465.294 1074.58 468.156 1082.7C471.938 1093.43 482.333 1102.3 481.338 1113.64C486.058 1123.44 496.478 1128.26 506.957 1131.18L525.737 1136.41C529.333 1137.41 533.091 1138.42 536.752 1137.69C540.414 1136.97 543.908 1133.93 543.814 1130.19C534.604 1128.12 525.099 1125.91 517.508 1120.29C509.916 1114.68 504.715 1104.69 507.596 1095.69C508.932 1091.53 511.773 1086.71 509.072 1083.27C507.525 1081.29 504.696 1080.78 502.952 1078.98C500.23 1076.17 501.165 1071.45 503.122 1068.07C505.078 1064.68 507.906 1061.66 508.695 1057.83C509.093 1055.69 508.827 1053.47 507.932 1051.49C507.037 1049.5 505.556 1047.83 503.688 1046.71C507.17 1045.4 510.337 1043.37 512.983 1040.75C515.428 1037.96 516.557 1033.65 514.634 1030.48C520.344 1031.2 527.086 1031.56 530.835 1027.19C533.828 1023.7 533.622 1018.48 532.44 1014.04C531.257 1009.6 529.258 1005.28 529.195 1000.69C542.368 1001.31 555.57 1000.86 568.67 999.349C566.776 992.968 562.471 987.576 556.669 984.316C562.602 983.312 568.007 976.208 569.882 970.489C571.756 964.77 571.278 958.541 570.119 952.635C569.674 951.114 569.613 949.507 569.942 947.957C570.61 945.828 572.702 944.528 574.637 943.417L604.087 926.501C605.844 925.62 607.437 924.444 608.796 923.024C611.882 919.399 611.425 913.927 609.845 909.436C608.265 904.946 605.734 900.723 605.126 896.002C603.306 881.881 618.419 871.75 623.52 858.458C625.521 853.242 625.929 847.572 626.317 841.998C626.733 836.011 626.764 829.058 622.168 825.2C617.762 821.502 610.878 822.327 606.268 818.887C602.042 815.733 600.584 809.608 595.967 807.061C591.773 804.748 586.516 806.219 581.853 805.131C573.641 803.216 568.474 793.751 560.088 792.874C555.357 792.38 550.002 794.693 546.124 791.937C542.707 789.509 542.57 784.628 541.919 780.486C540.779 774.049 537.695 768.117 533.08 763.487C528.466 758.857 522.544 755.753 516.112 754.592C511.234 753.81 505.924 754.107 501.773 751.426C497.571 748.71 495.644 743.627 492.343 739.867C487.023 733.807 478.644 731.654 470.795 729.809L438.867 722.302C433.199 720.969 425.894 720.263 422.852 725.228C421.952 727.119 421.314 729.124 420.958 731.187C419.818 734.92 417.525 738.195 414.407 740.542C411.289 742.889 407.507 744.187 403.606 744.25C400.93 739.685 396.595 736.33 391.505 734.886C388.268 733.983 384.802 733.883 381.715 732.555C380.033 731.734 378.537 730.579 377.317 729.16C376.097 727.74 375.18 726.087 374.622 724.301C374.063 722.515 373.875 720.633 374.068 718.772C374.262 716.91 374.833 715.108 375.747 713.475C377.588 710.197 378.299 706.404 377.77 702.682C377.242 698.96 375.503 695.516 372.822 692.88C367.392 688.005 359.538 686.827 352.258 687.315C350.351 683.154 353.539 678.459 356.975 675.435C360.411 672.411 364.583 669.438 365.331 664.922C366.508 657.819 357.446 652.424 350.565 654.542C343.684 656.66 339.293 663.344 336.39 669.933C334.724 673.713 333.308 677.694 330.681 680.882C328.053 684.069 323.822 686.352 319.82 685.329C314.155 683.88 311.967 677.148 310.713 671.436C309.03 663.771 307.338 656.001 307.691 648.162C308.043 640.323 310.685 632.274 316.465 626.967C325.883 618.319 340.331 619.167 353.041 620.547C350.039 617.163 350.781 611.46 353.994 608.275C355.69 606.767 357.728 605.697 359.931 605.155C362.135 604.614 364.437 604.618 366.638 605.168C370.468 605.965 373.918 608.028 376.434 611.025C380.045 615.43 381.073 621.376 383.803 626.376C386.533 631.375 392.672 635.639 397.696 632.957C402.036 630.64 402.725 624.621 401.645 619.821C400.565 615.021 398.271 610.354 398.662 605.449C399.409 596.091 409.108 590.457 417.668 586.603C426.227 582.749 436.028 577.566 437.384 568.276C437.43 566.457 437.774 564.658 438.4 562.95C439.349 561.441 440.668 560.2 442.232 559.345C467.213 542.834 492.609 526.121 521.161 517.099C522.646 516.63 522.821 517.151 524.335 516.784C526.453 515.559 525.049 512.171 523.018 510.806C520.987 509.441 518.272 508.395 517.756 506.002C517.377 504.243 518.414 502.516 518.683 500.738C519.344 496.366 514.116 492.33 510.055 494.078C507.762 491.04 512.3 487.51 515.969 486.5C526.988 483.467 538.3 481.619 549.711 480.987C551.027 480.778 552.377 481.007 553.55 481.64C555.467 482.968 555.222 486.014 553.864 487.909C552.505 489.804 550.392 490.994 548.7 492.598C546.85 494.4 545.531 496.675 544.887 499.175C544.242 501.676 544.296 504.305 545.044 506.777C551.001 509.807 557.477 512.927 564.075 511.859C570.673 510.792 576.529 503.377 573.428 497.456C570.54 491.942 561.865 490.698 560.373 484.655C558.627 477.579 568.642 471.286 566.386 464.356C565.397 461.32 562.373 459.533 560.052 457.342C557.31 454.655 555.446 451.201 554.703 447.435C553.959 443.669 554.372 439.766 555.887 436.239C552.107 436.904 548.222 436.653 544.558 435.506C540.895 434.359 537.559 432.351 534.832 429.649C529.796 424.566 525.778 416.547 518.627 416.774C512.064 416.983 506.412 424.64 500.275 422.304C498.766 421.73 497.174 420.56 495.711 421.245C495.232 421.556 494.83 421.973 494.535 422.462C494.24 422.952 494.06 423.502 494.009 424.072C492.449 431.528 495.132 440.024 491.069 446.468C486.647 453.479 476.419 454.452 471.058 460.774C468.148 464.207 467.021 468.832 464.346 472.45C461.671 476.069 455.994 478.37 452.785 475.216C454.362 471.973 454.793 468.29 454.007 464.769C453.22 461.249 451.263 458.1 448.455 455.836C445.475 453.891 442.263 452.329 438.893 451.184C435.128 449.591 431.547 447.594 428.211 445.23C426.54 444.222 425.182 442.769 424.289 441.033C423.583 438.86 423.678 436.506 424.558 434.397C426.185 429.729 429.057 425.596 432.862 422.441C436.667 419.287 441.261 417.232 446.149 416.498C450.423 415.917 455.397 416.122 458.225 412.865C459.722 411.142 460.507 408.536 462.679 407.836C464.069 407.557 465.511 407.735 466.792 408.343L482.744 413.958C484.524 414.762 486.483 415.086 488.427 414.898C489.39 414.769 490.269 414.279 490.887 413.528C491.505 412.777 491.816 411.82 491.758 410.849C491.248 408.199 487.172 406.928 487.543 404.256C487.751 403.389 488.216 402.607 488.878 402.011C494.635 395.883 501.675 391.103 509.495 388.015C517.315 384.926 525.721 383.605 534.112 384.146C536.125 387.453 532.941 391.37 530.291 394.193C527.642 397.016 525.512 402.061 528.717 404.234C530.03 404.904 531.49 405.233 532.964 405.191C536.891 405.722 540.708 406.88 544.269 408.62C549.782 411.02 555.188 413.645 560.489 416.496C560.021 413 559.574 409.318 560.899 406.049C562.223 402.781 565.988 400.217 569.277 401.49C572.446 402.717 574.072 406.914 577.448 407.298C581.953 407.811 583.73 401.156 581.848 397.031C579.967 392.906 576.242 389.452 575.931 384.929C575.722 381.877 576.883 378.093 574.445 376.245C573.578 375.69 572.594 375.345 571.57 375.236L510.716 364.037C507.102 363.371 501.881 363.881 501.721 367.553C501.631 369.602 503.461 371.629 502.651 373.514C501.785 375.525 498.943 375.341 496.873 376.052C493.661 377.156 492.049 380.97 492.357 384.353C492.922 387.715 494.224 390.91 496.169 393.709C492.211 392.053 486.217 391.749 482.259 390.093Z" fill="white"/>
<path id="Vector_3" d="M433.703 338.428C429.866 337.158 425.731 337.098 421.859 338.258C417.986 339.418 414.564 341.741 412.057 344.911C411.055 346.231 410.213 348.05 411.052 349.479C412.255 351.527 415.319 350.718 417.578 349.985C420.899 348.799 424.514 348.712 427.887 349.739C430.009 350.468 431.906 351.755 434.037 352.456C435.074 352.89 436.21 353.033 437.323 352.871C438.435 352.708 439.482 352.246 440.352 351.533C441.814 350.042 441.906 347.723 441.909 345.634C442.01 344.935 441.954 344.222 441.745 343.547C441.536 342.872 441.179 342.253 440.7 341.734C439.847 341.24 438.888 340.956 437.904 340.907C435.7 340.499 433.706 339.334 432.268 337.614" fill="white"/>
<path id="Vector_4" d="M455.646 332.317C454.787 332.271 453.931 332.445 453.159 332.825C452.388 333.205 451.727 333.777 451.24 334.487C450.754 335.196 450.458 336.018 450.381 336.875C450.304 337.732 450.448 338.594 450.801 339.378C453.438 340.098 456.194 340.277 458.902 339.907C460.253 339.697 461.512 339.092 462.519 338.168C463.527 337.244 464.239 336.042 464.564 334.714C461.376 335.295 458.085 334.666 455.335 332.951" fill="white"/>
<path id="Vector_5" d="M529.267 322.113C522.089 323.639 515.116 326.008 508.493 329.17C511.615 330.371 514.269 332.542 516.064 335.365C517.859 338.188 518.699 341.513 518.462 344.849C518.182 346.13 518.214 347.46 518.556 348.726C519.319 350.576 521.53 351.27 523.474 351.745C526.966 352.808 530.612 353.273 534.259 353.122C536.084 353.026 537.855 352.477 539.414 351.525C540.973 350.572 542.27 349.245 543.187 347.665C543.715 346.166 544.335 344.7 545.043 343.276C549.702 336.18 563.543 344.76 568.545 337.902C570.307 335.485 570.146 331.849 572.443 329.934C573.631 329.1 575.008 328.574 576.45 328.405C586.509 326.406 596.67 324.958 606.887 324.069C611.728 323.648 618.038 321.909 618.078 317.049C599.844 313.467 580.937 316.011 564.297 324.285C558.302 327.289 550.373 333.606 544.598 329.624C542.436 328.134 542.543 324.119 539.567 322.443C536.524 320.729 532.497 321.426 529.267 322.113Z" fill="white"/>
<path id="Vector_6" d="M588.899 333.266L597.459 334.911C595.883 334.841 594.311 335.108 592.847 335.694C591.382 336.28 590.06 337.172 588.968 338.309C587.875 339.447 587.038 340.805 586.512 342.292C585.986 343.779 585.783 345.361 585.916 346.933C593.932 349.611 602.671 347.005 611.114 347.361C619.558 347.717 629.382 353.749 627.941 362.078C627.505 364.596 626.051 367.112 626.807 369.554C627.337 371.265 628.846 372.479 629.698 374.054C631.472 377.338 630.054 381.492 627.813 384.477C625.572 387.462 622.56 389.844 620.593 393.016C615.701 400.906 618.481 411.106 621.395 419.92C622.238 423.251 623.793 426.358 625.955 429.028C630.272 433.619 637.308 434.019 643.609 434.111C648.195 434.178 653.449 433.951 656.349 430.397C660.136 425.757 657.488 418.519 659.981 413.073C662.245 408.128 668.013 406.006 673.239 404.502C682.813 401.745 692.571 399.401 701.622 395.237C712.862 390.067 723.366 382.009 735.72 381.343C739.185 381.157 742.737 381.566 746.076 380.616C749.414 379.666 752.585 376.78 752.333 373.317C752.117 370.359 749.614 368.187 747.659 365.957C745.704 363.727 744.168 360.298 745.965 357.939L778.346 351.89C776.051 345.634 774.263 337.394 779.537 333.322C781.44 331.853 783.988 331.265 785.608 329.489C788.37 326.462 786.981 321.247 783.793 318.672C780.605 316.097 776.295 315.499 772.212 315.16C758.013 313.981 743.734 314.76 729.508 315.54C701.7 317.065 673.892 318.589 646.084 320.114C640.486 320.42 634.022 319.952 628.888 321.862C624.541 323.479 621.451 326.447 616.48 327.49C607.303 329.415 597.204 328.113 588.899 333.266Z" fill="white"/>
<path id="Vector_7" d="M742.242 400.933C741.37 400.795 740.478 400.997 739.75 401.498C739.269 402.028 738.983 402.706 738.939 403.42C738.387 406.571 739.045 409.815 740.782 412.502C741.667 413.82 742.889 414.877 744.32 415.564C745.752 416.25 747.341 416.541 748.922 416.405C752.776 415.914 755.617 412.625 759.16 411.02C764.621 408.549 787.814 404.697 771.77 396.028C766.242 393.041 762.669 395.678 758.311 397.646C753.353 400.182 747.798 401.319 742.242 400.933V400.933Z" fill="white"/>
<path id="Vector_8" d="M882.763 328.372C880.889 329.137 879.322 330.502 878.306 332.252C877.837 333.141 877.729 334.175 878.002 335.142C878.275 336.109 878.91 336.933 879.774 337.445C880.473 337.699 881.215 337.817 881.959 337.792L889.576 338.02C892.812 338.116 896.854 338.806 897.724 341.924C898.369 344.24 896.924 347.216 898.668 348.871C899.416 349.451 900.316 349.802 901.259 349.882C903.768 350.526 906.389 350.611 908.934 350.13C914.476 348.643 911.564 345.26 913.31 342.247C915.981 337.638 915.518 340.428 920.224 337.787C923.7 335.836 928.191 332.297 925.29 327.325C920.246 318.678 890.206 324.657 882.763 328.372Z" fill="white"/>
<path id="Vector_9" d="M1033.11 324.025L1028.68 324.615C1018.71 325.946 1008.68 327.29 999.072 330.285C1003.23 331.93 1007.59 333 1012.04 333.468C1014.49 333.588 1016.92 333.934 1019.3 334.501C1023.55 335.764 1027.82 339.026 1031.92 337.355C1034.46 336.319 1035.29 333.672 1037.4 332.269C1038.85 331.301 1044.37 329.733 1044.98 328.755C1049.97 320.852 1036.94 323.513 1033.11 324.025Z" fill="white"/>
<path id="Vector_10" d="M1052.53 344.13C1046.62 347.434 1041.14 351.449 1036.21 356.086C1034.13 358.039 1032.01 360.469 1032.19 363.316C1032.44 367.099 1036.47 369.293 1039.96 370.772L1054.1 376.759C1055.82 374.341 1054.25 371.003 1052.48 368.627C1050.7 366.251 1048.6 363.501 1049.38 360.642C1050.27 357.379 1054.25 356.267 1057.59 355.705C1063.02 354.789 1077.69 354.862 1075.92 346.102C1073.85 335.779 1057.98 341.08 1052.53 344.13Z" fill="white"/>
<path id="Vector_11" d="M1049.69 928.296C1048.34 932.193 1048.21 936.785 1050.54 940.188C1053.15 944.006 1058.38 945.43 1062.91 944.461C1067.41 943.263 1071.43 940.68 1074.39 937.079C1077.09 934.061 1079.32 930.645 1080.99 926.95C1083.32 921.193 1084.96 915.181 1085.89 909.039L1090.28 885.985C1091.26 880.833 1091.22 865.037 1081.75 870.183C1079.16 871.589 1073.17 882.69 1070.46 885.838C1065.58 891.511 1064.93 897.016 1062.36 903.889C1059.14 912.498 1052.66 919.673 1049.69 928.296Z" fill="white"/>
<path id="Vector_12" d="M1549.77 1046.27C1546.67 1045.06 1543.67 1043.63 1540.78 1041.98C1537.88 1049.96 1536.33 1058.36 1536.21 1066.85L1557.41 1054.85C1560.6 1053.04 1564.22 1050.54 1564.15 1046.87C1564.18 1046.42 1564.09 1045.97 1563.88 1045.56C1563.67 1045.16 1563.36 1044.82 1562.98 1044.58C1562.51 1044.39 1561.99 1044.33 1561.49 1044.4C1558.35 1044.66 1555.48 1046.21 1552.52 1047.29C1549.55 1048.36 1546.08 1048.93 1543.36 1047.33" fill="white"/>
<path id="Vector_13" d="M1659.61 1051.39C1657.28 1052.03 1655.01 1052.84 1652.81 1053.83C1647.94 1056.31 1644.63 1061.01 1640.26 1064.27C1636.07 1067.39 1631.02 1069.1 1626.07 1070.77C1624.62 1072.06 1625.29 1074.65 1626.87 1075.78C1628.57 1076.75 1630.52 1077.19 1632.47 1077.04C1637.61 1077.15 1643.03 1077.2 1647.53 1074.72C1650.07 1073.07 1652.45 1071.19 1654.63 1069.09C1659.9 1064.69 1666.22 1061.79 1672.48 1058.99C1674.76 1058.13 1676.87 1056.87 1678.71 1055.27C1682.64 1051.39 1682.92 1045.41 1677.24 1044.09C1672.66 1043.02 1663.97 1049.98 1659.61 1051.39Z" fill="white"/>
<path id="Vector_14" d="M1708.02 1018.11C1708.28 1015.44 1707.92 1012.75 1706.98 1010.24C1706.05 1007.73 1704.55 1005.46 1702.61 1003.62C1702.55 1008.95 1702.39 1014.64 1699.39 1019.05C1697.25 1022.2 1693.9 1024.32 1691.55 1027.32C1689.21 1030.32 1688.17 1035.06 1690.92 1037.69C1692.68 1039.03 1694.82 1039.77 1697.02 1039.79C1702.49 1040.44 1708.83 1040.8 1712.66 1036.84C1714.76 1034.69 1715.78 1031.49 1718.33 1029.91C1719.28 1029.51 1720.13 1028.9 1720.82 1028.13C1721.87 1026.45 1720.2 1024.24 1718.31 1023.63C1716.42 1023.03 1714.35 1023.31 1712.45 1022.74C1710.55 1022.17 1708.81 1020.03 1709.79 1018.31" fill="white"/>
<path id="Vector_15" d="M1623.2 825.409C1620.33 826.107 1617.36 826.282 1614.42 825.926C1609.55 825.03 1605.76 821.359 1601.83 818.348C1592.48 811.23 1581.12 807.259 1569.37 807.006C1558.69 806.805 1547.9 809.701 1537.41 807.68C1538.09 811.494 1541.36 814.355 1544.84 816.055C1548.32 817.756 1552.16 818.611 1555.66 820.277C1561.27 822.971 1565.71 827.595 1568.18 833.301C1569.31 835.931 1570.02 838.794 1571.72 841.091C1575.21 845.786 1581.82 846.817 1587.66 846.433C1595.27 845.932 1603.21 843.744 1610.29 846.579C1615.71 848.748 1619.58 853.488 1624.11 857.174C1628.63 860.86 1635 863.595 1640.19 860.936C1634.79 859.19 1630.1 855.765 1626.79 851.163C1623.48 846.56 1621.73 841.02 1621.79 835.351C1626.88 835.819 1641.55 835.638 1640.76 826.984C1640.09 819.65 1627.57 824.617 1623.2 825.409Z" fill="white"/>
<path id="Vector_16" d="M1556.58 885.078C1557.49 880.118 1562.43 875.738 1560.89 870.938C1559.83 867.619 1555.98 865.98 1552.49 865.898C1549.01 865.816 1545.59 866.854 1542.1 866.952C1539.83 866.832 1537.56 866.864 1535.3 867.049C1528.38 868.186 1524.12 875.437 1517.6 878.015C1513.63 879.583 1509.18 879.283 1505.06 880.367C1495.7 882.827 1489.78 891.671 1483.24 898.801C1472.67 910.27 1458.9 918.301 1443.72 921.854C1438.39 923.086 1432.68 923.874 1428.45 927.33C1422.85 931.907 1421.47 939.753 1420.22 946.877C1416.78 966.555 1411.52 985.87 1404.51 1004.57L1426.73 1007.41C1430.95 1007.95 1435.33 1008.48 1439.4 1007.23C1442.36 1006.11 1445.16 1004.62 1447.73 1002.79C1457.63 996.643 1468.7 992.644 1480.24 991.051C1486.06 990.252 1492.16 990.106 1497.62 992.269C1503.08 994.432 1507.77 999.337 1508.22 1005.19C1510.59 1004.46 1513.1 1004.38 1515.51 1004.96C1517.91 1005.55 1520.11 1006.77 1521.87 1008.51C1525.35 1012.06 1527.62 1016.61 1528.38 1021.52C1528.97 1024.56 1529.55 1028.2 1532.37 1029.47C1534.67 1030.52 1537.31 1029.39 1539.83 1029.19C1548.37 1028.51 1555.46 1038.47 1563.86 1036.76C1572.86 1034.92 1575.07 1021.43 1583.86 1018.73C1588.91 1017.17 1595.98 1019.06 1598.4 1014.37C1600.53 1010.23 1596.28 1005.46 1596.72 1000.82C1597.26 995.119 1603.99 992.697 1609.17 990.263C1627.05 981.872 1635.54 957.803 1626.87 940.051C1621.74 929.533 1611.64 921.253 1609.77 909.698C1608.34 900.808 1611.84 890.442 1606.17 883.444C1603.29 879.885 1598.41 877.92 1596.69 873.672C1595.61 870.999 1596.05 867.965 1595.47 865.141C1594.89 862.316 1592.42 859.362 1589.63 860.094C1581.54 862.219 1578.96 887.229 1574.62 893.306C1568.03 902.543 1554.51 896.458 1556.58 885.078Z" fill="white"/>
<path id="Vector_17" d="M1406.96 834.858C1404.2 834.082 1401.18 833.318 1398.53 834.427C1395.88 835.535 1394.33 839.427 1396.45 841.359C1413.1 840.71 1429.84 840.066 1446.34 842.327C1465.35 844.931 1484.17 851.382 1503.26 849.484C1492.36 846.266 1481.27 843.693 1470.06 841.778L1451.36 838.206C1446.35 837.156 1441.28 836.373 1436.18 835.861C1425.52 834.98 1417.45 837.798 1406.96 834.858Z" fill="white"/>
<path id="Vector_18" d="M1423.62 776.888C1422.24 776.773 1420.53 776.673 1419.82 777.861C1419.13 778.997 1419.92 780.496 1419.55 781.769C1419.05 783.508 1416.77 783.952 1414.98 783.716C1413.18 783.479 1411.24 782.912 1409.65 783.777C1408.85 784.328 1408.24 785.125 1407.93 786.049C1407.61 786.974 1407.6 787.975 1407.91 788.903C1408.56 790.746 1409.61 792.422 1410.98 793.809C1413.33 796.772 1416.01 799.459 1418.97 801.819C1424.69 806.041 1432.44 808.076 1436.04 814.206C1436.55 815.394 1437.33 816.446 1438.32 817.275C1440.05 818.371 1442.3 817.537 1444.17 816.686L1450.69 813.704C1451.87 813.28 1452.92 812.566 1453.74 811.628C1455.24 809.604 1454.32 806.727 1453.07 804.547C1451.82 802.367 1450.21 800.111 1450.48 797.612C1450.96 793.155 1456.69 791.451 1459.05 787.638C1461.42 783.795 1459.88 778.843 1460.15 774.333C1460.47 769.059 1463.78 762.199 1458.45 758.258C1453.92 754.909 1449.59 758.003 1446.34 761.701C1439.48 769.498 1436.23 777.941 1423.62 776.888Z" fill="white"/>
<path id="Vector_19" d="M1463.24 698.087C1465.47 702.354 1470.12 704.901 1472.55 709.056C1475.18 713.561 1474.88 719.381 1477.74 723.747C1480.67 728.226 1486.57 730.604 1488.21 735.699C1490.01 741.262 1485.94 748.022 1489.18 752.883C1489.79 753.677 1490.55 754.337 1491.42 754.821C1492.3 755.305 1493.26 755.601 1494.26 755.693C1495.25 755.784 1496.26 755.668 1497.2 755.352C1498.15 755.035 1499.02 754.525 1499.76 753.855C1501.13 752.364 1501.86 750.398 1501.8 748.375C1501.74 746.353 1500.9 744.433 1499.44 743.026C1497.52 741.273 1494.76 740.516 1493.15 738.469C1492.32 737.287 1491.76 735.932 1491.53 734.504C1490.65 730.385 1490.79 726.115 1491.93 722.063C1492.36 721.034 1492.47 719.9 1492.25 718.808C1491.52 716.708 1488.68 716.559 1486.69 715.585C1482.15 713.372 1482.26 706.974 1483.05 701.992C1482.53 705.309 1470.71 699.667 1469.48 697.788C1467.02 694.056 1468.36 686.856 1467.87 682.731C1462.56 685.288 1460.52 692.869 1463.24 698.087Z" fill="white"/>
<path id="Vector_20" d="M1344.23 763.743C1342.05 761.302 1338.76 758.748 1335.84 760.22C1333.61 761.344 1333 764.43 1333.87 766.769C1334.94 769.042 1336.58 770.997 1338.63 772.441C1344.72 777.466 1351.28 782.001 1356.6 787.842C1366.11 798.295 1371.14 812.4 1381.49 822.03C1383.57 824.263 1386.32 825.753 1389.33 826.273C1392.34 826.553 1395.72 824.624 1396.07 821.617C1396.35 819.14 1394.63 816.923 1392.94 815.087C1388.92 810.716 1384.52 806.693 1380.73 802.126C1378.98 800.371 1377.88 798.072 1377.61 795.607C1377.59 793.147 1379.83 790.573 1382.22 791.182C1379.32 790.442 1377.17 785.614 1372.92 784.707C1369.36 783.948 1368.5 786.149 1364.27 784.334C1356.21 780.874 1349.88 770.068 1344.23 763.743Z" fill="white"/>
<path id="Vector_21" d="M1533.77 526.035C1531.46 525.347 1529.18 524.534 1526.95 523.6C1520.96 521.802 1513.04 526.205 1513.84 532.408C1514.37 536.529 1518.2 539.308 1520.32 542.883C1523.46 548.184 1522.63 554.908 1520.98 560.846C1520.57 562.684 1519.8 564.422 1518.71 565.956C1517.18 567.576 1515.36 568.887 1513.34 569.818C1505.25 574.354 1498.12 580.414 1492.34 587.664C1491.71 588.334 1491.27 589.16 1491.07 590.056C1490.78 592.15 1492.89 593.676 1494.08 595.422C1496.72 599.303 1494.81 604.524 1495.07 609.212C1495.03 609.875 1495.16 610.537 1495.45 611.136C1495.74 611.734 1496.17 612.25 1496.72 612.633C1498.31 613.442 1500.2 612.067 1501.06 610.502C1503.93 605.309 1501.77 596.974 1507.14 594.47C1508.16 593.996 1509.39 593.797 1510.07 592.903C1511.15 591.486 1510.11 589.387 1510.66 587.693C1511.47 585.149 1514.95 585.035 1517.62 585.148C1522.22 585.34 1526.82 584.728 1531.21 583.339C1532.93 582.93 1534.49 582.024 1535.7 580.735C1537.31 578.729 1537.17 575.876 1536.85 573.326C1535.24 560.611 1531.21 548.321 1524.98 537.121C1529.71 537.724 1534.84 538.246 1538.92 535.785C1541.2 534.406 1543.94 530.284 1542.81 527.479C1541.02 523.042 1537.78 526.777 1533.77 526.035Z" fill="white"/>
<path id="Vector_22" d="M928.323 595.965C928.888 598.997 929.444 602.189 928.451 605.109C927.457 608.028 924.332 610.468 921.381 609.573C919.091 608.879 917.768 606.576 916.142 604.82C907.099 595.056 886.695 600.709 881.109 588.629C878.829 583.699 880.378 577.792 878.823 572.587C877.842 569.579 875.89 566.983 873.273 565.205C870.656 563.427 867.523 562.568 864.366 562.765C861.486 563.181 858.683 564.017 856.046 565.248C838.383 572.323 819.839 576.962 800.926 579.037C797.331 579.256 793.776 579.903 790.335 580.964C782.569 583.78 777.262 590.981 773.486 598.329C769.71 605.677 766.922 613.632 761.859 620.161C756.538 627.022 749.082 631.826 742.127 637.023C739.447 638.75 737.216 641.089 735.617 643.846C734.109 646.942 734.194 650.543 734.311 653.985L735.733 695.788C735.916 701.164 736.145 706.733 738.551 711.545C741.556 717.554 747.492 721.489 751.609 726.797C755.811 732.251 758 738.991 757.806 745.874C757.718 748.641 757.443 751.914 759.598 753.652C760.909 754.502 762.443 754.944 764.005 754.92L820.543 759.548C830.488 760.362 841.51 761.7 848.003 769.279C851.068 772.855 853.53 777.999 858.224 778.382C860.237 778.547 862.196 777.72 864.21 777.561C869.29 777.158 873.754 781.015 876.57 785.263C880.834 791.738 882.769 799.47 882.058 807.19C881.596 812.036 880.094 816.747 879.77 821.604C878.538 840.085 894.203 856.141 894.506 874.661C894.685 885.554 889.514 895.732 884.473 905.391C892.609 917.718 885.947 934.133 889.186 948.543C892.259 962.215 903.657 972.919 906.497 986.641C907.797 992.923 907.873 1000.65 913.411 1003.89C915.842 1005.07 918.536 1005.61 921.235 1005.46C937.515 1005.65 953.61 1001.98 968.203 994.762C975.051 991.363 982.149 986.288 983.345 978.736C984.31 972.645 981.222 965.832 984.365 960.527C988.069 954.274 997.558 954.77 1003.01 949.963C1011.85 942.163 1004.96 927.289 1008.54 916.056C1011.76 905.959 1022.84 900.595 1028.34 891.532C1030.5 887.635 1032.05 883.428 1032.94 879.06C1035.46 868.62 1037.02 857.974 1037.62 847.251C1037.77 840.737 1038.25 834.234 1039.06 827.768C1044.98 790.958 1081.37 766.31 1093.18 730.948C1094.31 727.571 1094.84 723.072 1091.83 721.162C1090.05 720.311 1088.03 720.1 1086.11 720.563L1060.05 723.849C1056.81 724.257 1053.38 724.639 1050.41 723.294C1047.44 721.949 1045.31 718.188 1046.88 715.331C1051.31 707.312 1042.2 697.178 1038.16 688.959C1027.26 666.83 1014.29 645.787 999.413 626.114C998.461 625.102 997.864 623.807 997.714 622.425L1005.11 622.672C1002.61 613.711 998.494 603.905 989.789 600.627C984.884 598.78 979.452 599.418 974.219 599.704C959.229 600.523 943.159 598.26 928.323 595.965Z" fill="white"/>
<path id="Vector_23" d="M974.231 394.028C978.153 398.194 982.549 402.611 988.224 403.338C998.248 404.62 1005.46 394.253 1010.04 385.248C1010.21 387.543 1011.27 389.682 1013 391.21C1014.72 392.737 1016.97 393.532 1019.27 393.425C1021.74 393.009 1024.1 392.085 1026.2 390.713C1046.06 379.858 1068.31 374.106 1090.94 373.975C1090.73 372.26 1091.15 370.526 1092.14 369.106C1093.12 367.686 1094.6 366.682 1096.28 366.288C1100.88 365.375 1105.03 369.354 1107.25 373.488C1109.47 377.621 1110.85 382.412 1114.38 385.506C1117.91 388.6 1124.73 388.465 1126.13 383.985C1127.46 379.683 1122.98 376.015 1119.26 373.479C1115.54 370.944 1111.62 366.25 1114.12 362.508C1133.14 358.298 1152.27 354.072 1171.73 353.235C1175.04 353.35 1178.35 352.782 1181.43 351.564C1184.4 350.108 1186.76 346.802 1185.96 343.593C1181.71 344.592 1177.26 344.303 1173.18 342.763C1169.1 341.223 1165.57 338.503 1163.04 334.948C1190.04 332.72 1218.76 330.82 1242.69 343.527C1245.56 349.692 1230.92 354.821 1234.84 360.382C1236.09 362.156 1238.59 362.364 1240.76 362.404C1257.39 362.713 1274.11 363.015 1290.55 360.505C1296.56 359.587 1302.63 358.292 1308.66 359.036C1318.71 360.275 1327.3 366.98 1337.19 369.166C1341.21 370.055 1345.72 370.086 1349.11 367.745C1352.5 365.405 1353.96 360.076 1351.18 357.034C1360.49 347.911 1375.93 350.172 1388.21 354.54C1400.49 358.907 1412.12 365.95 1425.11 366.924C1434.43 367.622 1443.88 365.115 1453.09 366.708C1458.87 367.71 1464.26 370.284 1469.91 371.866C1480.61 374.857 1491.92 374.226 1503.03 374.37C1531.36 374.752 1559.39 380.321 1585.72 390.803C1589.14 391.918 1592.28 393.772 1594.91 396.234C1597.36 398.858 1598.61 402.935 1596.96 406.125L1569.76 402.149C1572.32 407.196 1578.95 408.056 1584.34 409.797C1589.72 411.538 1595.3 417.486 1592.07 422.13C1586.23 420.272 1580.95 426.107 1578 431.475C1575.05 436.843 1571.46 443.273 1565.34 443.6C1559.87 443.893 1553.25 439.229 1549.68 443.393C1554.61 449.614 1558.83 456.366 1562.27 463.523C1565.79 470.87 1568.3 480.128 1563.54 486.738C1562.79 487.919 1561.65 488.801 1560.32 489.233C1556.43 490.219 1553.9 485.456 1551.11 482.57C1547.59 478.932 1542.27 477.902 1537.51 476.196C1532.74 474.49 1527.73 471.134 1527.35 466.088C1527.12 462.948 1528.78 460.029 1530 457.127C1532.05 452.236 1532.95 446.937 1532.62 441.642C1532.36 437.383 1531.16 432.952 1528.1 429.976C1525.04 427 1519.76 426.056 1516.48 428.782C1514.95 430.054 1513.72 432.088 1511.73 432.164C1508.21 432.299 1505.52 426.169 1502.69 428.261C1503.02 430.491 1502.56 432.766 1501.38 434.689C1492.94 442.031 1479.98 438.925 1469.09 441.518C1463.92 442.999 1458.97 445.163 1454.36 447.952C1452.64 448.688 1451.18 449.918 1450.15 451.487C1448.8 454.127 1450.29 457.507 1452.69 459.263C1455.23 460.82 1458.08 461.794 1461.04 462.114C1474.3 464.627 1487.76 468.516 1498.24 477.038C1508.71 485.559 1515.58 499.646 1512.26 512.735L1486.1 487.736C1487.1 498.233 1487.66 508.758 1487.79 519.313C1487.96 521.374 1487.68 523.447 1486.97 525.387C1485.1 529.506 1480.05 530.893 1475.62 531.802C1474.39 532.036 1473.22 532.528 1472.19 533.246C1471.16 533.964 1470.3 534.891 1469.65 535.967C1469.01 537.043 1468.6 538.243 1468.45 539.488C1468.3 540.733 1468.42 541.996 1468.79 543.193C1470.37 548.323 1474.29 552.323 1477.88 556.308C1481.48 560.293 1485.01 564.823 1485.48 570.168C1485.95 575.514 1481.92 581.539 1476.57 581.167C1472.51 580.885 1469.5 577.252 1467.77 573.571C1466.04 569.89 1465.01 565.789 1462.41 562.661C1454.54 553.194 1436.86 557.25 1429.81 547.157C1428.01 549.196 1426.76 551.661 1426.19 554.317C1425.61 556.973 1425.72 559.733 1426.51 562.334C1429.79 560.28 1434.28 562.189 1436.75 565.173C1439.21 568.157 1440.37 571.983 1442.31 575.334C1444.92 579.857 1449.08 583.867 1449.44 589.077C1449.34 591.047 1449.38 593.021 1449.54 594.987C1450.19 598.144 1452.86 600.41 1454.71 603.049C1459.01 609.189 1458.8 617.624 1456.02 624.59C1453.25 631.556 1448.26 637.377 1443.33 643.021C1434.71 652.878 1425.91 662.678 1415.69 670.864C1412.77 673.2 1409.66 675.496 1407.84 678.762C1406.02 682.028 1405.93 686.612 1408.72 689.096C1406.72 689.196 1403.14 690.178 1401.14 690.278C1400.44 682.264 1400.29 674.212 1400.69 666.177C1392.8 662.391 1384.32 672.529 1385.33 681.215C1386.35 689.901 1392.63 696.872 1397.1 704.387C1400.38 709.882 1402.81 716.29 1401.71 722.592C1400.62 728.893 1395 734.706 1388.63 734.15C1378.5 733.266 1374.26 718.718 1364.22 717.053C1363.34 716.845 1362.41 716.937 1361.58 717.315C1360.09 718.133 1359.83 720.126 1359.75 721.823C1359.34 730.153 1358.98 738.814 1362.24 746.494C1366.99 757.73 1379.28 767.166 1376.7 779.092C1362.82 772.636 1355.6 757.063 1352.32 742.103C1349.04 727.144 1348.5 711.439 1342.62 697.298C1338.16 703.017 1328.78 698.289 1324.7 692.289C1320.84 686.6 1318.46 680.02 1314.71 674.255C1310.96 668.49 1305.22 663.328 1298.35 663.011C1291.15 662.678 1284.9 667.621 1279.41 672.292C1274.89 676.132 1270.25 680.124 1267.61 685.433C1263.77 693.158 1264.77 702.265 1264.59 710.892C1264.39 720.217 1262.41 730.057 1256.06 736.884C1249.7 743.711 1237.97 746.089 1230.96 739.936C1227.3 736.724 1225.53 731.924 1223.95 727.318C1216.35 705.111 1210.01 682.488 1204.98 659.56C1203.8 664.793 1199.2 671.538 1194.82 668.456C1193.83 667.627 1193.03 666.599 1192.47 665.439C1184.29 651.561 1169.12 643.236 1153.81 638.245C1138.49 633.253 1122.37 630.925 1107.22 625.44C1098.73 622.364 1090.62 618.325 1083.05 613.4C1081.12 616.235 1080 619.539 1079.79 622.962C1079.59 626.386 1080.31 629.8 1081.89 632.845C1085.25 638.796 1092.86 642.239 1099.36 640.159C1102.73 639.084 1105.57 636.749 1108.91 635.595C1112.25 634.442 1116.73 635.008 1118.18 638.224C1119.58 641.303 1117.47 645.027 1118.52 648.241C1120.11 653.137 1127.5 653.514 1130.08 657.969C1132 661.283 1130.42 665.685 1127.67 668.359C1124.93 671.034 1121.27 672.501 1117.93 674.363C1107.06 680.404 1099.34 690.716 1089.85 698.739C1080.35 706.763 1066.96 712.62 1055.65 707.474C1058.34 693.817 1042.08 683.79 1039.09 670.194C1038.1 665.719 1038.61 660.966 1037.2 656.605C1035.17 650.291 1029.57 645.95 1024.97 641.165C1019.4 635.299 1015.06 628.376 1012.2 620.804C1009.35 613.232 1008.04 605.165 1008.36 597.08C1008.6 591.461 1009.64 585.75 1008.36 580.274C1007.08 574.797 1002.54 569.496 996.924 569.744C984.093 570.311 967.928 571.266 961.196 560.326C958.793 556.421 957.747 550.703 961.221 547.711C963.672 545.601 967.289 545.8 970.508 546.116L999.419 548.961C1006.18 549.626 1013.49 550.175 1019.29 546.64C1025.1 543.104 1027.61 533.719 1022.24 529.56C1018.31 526.52 1011.28 526.685 1010.14 521.853C1009.19 517.828 1013.64 513.262 1011.23 509.899C1009.51 507.487 1005.63 508.156 1003.28 509.964C1000.93 511.772 999.227 514.416 996.597 515.784C991.984 518.186 986.471 515.9 981.508 514.347C976.545 512.794 969.891 512.662 967.483 517.273C964.791 522.429 969.871 529.186 967.199 534.352C963.667 541.184 951.703 537.295 946.741 543.171C941.048 549.913 950.616 559.968 948.696 568.581C946.244 569.796 943.52 570.353 940.789 570.2C938.058 570.046 935.414 569.187 933.114 567.706C930.852 566.167 929.049 564.044 927.897 561.562C926.746 559.081 926.288 556.333 926.573 553.612C927.049 549.737 929.069 545.782 927.715 542.12C926.621 539.159 923.649 537.397 920.886 535.87L892.791 520.343C890.183 525.182 893.48 531.182 897.605 534.817C901.729 538.452 906.895 541.189 909.604 545.973C911.318 549.288 911.702 553.131 910.678 556.719C909.654 560.307 907.299 563.369 904.094 565.28C903.693 565.557 903.236 565.744 902.755 565.828C902.274 565.911 901.781 565.89 901.309 565.765C900.861 565.502 900.47 565.151 900.16 564.734C899.85 564.317 899.627 563.841 899.503 563.336C894.546 550.649 887.104 538.139 875.205 531.512C863.306 524.884 846.208 526.247 838.405 537.411C836.552 540.063 835.308 543.086 833.694 545.89C825.116 560.785 806.727 567.839 789.546 567.378C787.866 567.471 786.194 567.078 784.73 566.246C781.954 564.328 782.079 560.258 782.504 556.91L784.307 542.701C784.669 539.848 785.194 536.695 787.452 534.913C790.635 532.403 795.226 533.987 799.279 533.929C802.35 533.785 805.303 532.7 807.736 530.822C810.17 528.943 811.967 526.362 812.885 523.427C813.704 520.464 813.698 517.333 812.87 514.372C812.041 511.412 810.42 508.733 808.182 506.626C806.324 504.881 803.83 502.689 804.812 500.336C805.203 499.685 805.733 499.128 806.362 498.704C806.992 498.28 807.708 497.999 808.458 497.88C815.738 495.766 823.431 495.212 830.591 492.716C837.75 490.221 844.693 485.117 846.389 477.726C846.908 475.461 847.145 472.717 849.179 471.595C850.2 471.164 851.296 470.94 852.404 470.936C856.285 470.383 859.819 468.398 862.31 465.37C864.801 462.342 866.069 458.491 865.863 454.576C869.294 452.178 874.101 453.942 877.42 456.492C880.74 459.042 883.67 462.412 887.709 463.511C895.236 465.56 902.51 458.895 910.311 458.864C913.591 458.851 916.987 460.011 920.073 458.899C923.201 457.771 925.07 454.656 927.471 452.355C929.872 450.054 934.085 448.65 936.302 451.129L934.414 437.142C938.217 438.103 942.181 438.239 946.04 437.541C949.899 436.843 953.564 435.328 956.79 433.096L932.388 424.85C931.538 424.638 930.754 424.219 930.106 423.63C928.332 421.719 930.094 418.742 931.537 416.57C934.988 411.375 935.567 402.816 929.892 400.23C926.018 398.464 921.572 400.583 917.854 402.657L900.044 412.589C899.478 415.975 903.618 417.893 906.183 420.174C907.735 421.554 908.834 423.371 909.334 425.387C909.835 427.403 909.714 429.523 908.988 431.468C908.262 433.414 906.965 435.095 905.266 436.29C903.567 437.485 901.547 438.138 899.47 438.163C900.643 439.688 901.458 441.457 901.855 443.34C902.251 445.223 902.219 447.17 901.761 449.039L889.778 449.901C888.433 450.171 887.036 449.899 885.891 449.142C884.61 448.004 884.784 446.009 884.487 444.32C883.77 440.245 879.78 437.389 875.708 436.657C871.636 435.924 867.47 436.863 863.438 437.79C861.726 438.406 859.846 438.363 858.164 437.668C857.2 437.042 856.467 436.116 856.078 435.034C854.31 430.747 855.962 425.709 858.801 422.043C861.641 418.377 865.527 415.697 869.018 412.645C877.365 405.32 883.498 395.807 886.723 385.179C893.32 382.415 900.149 378.659 906.746 375.895C916.916 370.745 928.321 368.535 939.679 369.513L962.019 369.94C968.633 370.066 975.427 370.228 981.543 372.75C987.659 375.272 993.033 380.726 993.455 387.329C993.582 388.077 993.518 388.844 993.267 389.56C993.017 390.276 992.588 390.916 992.022 391.421C991.159 391.892 990.18 392.113 989.198 392.058C983.029 392.274 980.399 393.812 974.231 394.028Z" fill="white"/>
<path id="Vector_24" d="M796.165 464.054C797.037 463.227 797.666 462.177 797.98 461.016C798.295 459.856 798.283 458.632 797.947 457.478C795.824 456.658 793.513 456.448 791.276 456.87C789.039 457.293 786.964 458.331 785.286 459.869C783.962 461.208 782.822 462.716 781.894 464.354C778.958 469.144 776.362 474.866 778.063 480.221C778.201 480.804 778.455 481.355 778.81 481.839C779.164 482.324 779.611 482.733 780.125 483.042C780.888 483.348 781.71 483.477 782.529 483.419C785.763 483.414 788.994 483.215 792.204 482.823C794.175 482.582 796.465 482.025 797.227 480.191C798.228 477.78 795.804 475.051 796.511 472.537C796.976 471.413 797.68 470.404 798.575 469.58C799.019 469.166 799.361 468.653 799.572 468.084C799.783 467.514 799.859 466.903 799.793 466.299C799.508 465.119 797.702 464.45 797.052 465.475" fill="white"/>
<path id="Vector_25" d="M812.934 442.309C810.061 441.65 807.1 441.464 804.167 441.759C803.518 441.739 802.875 441.886 802.299 442.183C801.74 442.595 801.335 443.182 801.148 443.851C800.528 445.839 800.681 447.988 801.574 449.869C802.468 451.75 804.037 453.226 805.97 454.002C807.023 454.244 808.032 454.649 808.96 455.204C811.439 457.128 809.859 461.061 810.328 464.164C810.855 467.649 814.228 470.574 813.61 474.044C813.122 476.778 810.203 478.943 810.673 481.679C811.165 484.546 814.802 485.407 817.701 485.637C819.381 485.931 821.11 485.733 822.68 485.066C824.254 483.99 825.373 482.369 825.822 480.516C827.009 476.983 827.507 473.255 827.291 469.534C827.278 467.842 826.853 466.178 826.053 464.687C825.18 463.506 824.212 462.398 823.159 461.374C817.605 454.912 823.453 445.274 812.934 442.309Z" fill="white"/>
<path id="Vector_26" opacity="0.8" d="M1543.27 948.47C1543.27 948.47 1117.89 704.258 934.761 750.53C934.761 750.53 546.65 792.303 501.67 884.204C501.67 884.204 378.297 498.607 333.317 485.753" stroke="#3F3D56" stroke-width="2" stroke-miterlimit="10"/>
<path id="Vector_27" opacity="0.8" d="M501.67 884.204C572.995 693.976 1215.56 483.183 1215.56 483.183C1124.32 506.319 934.761 750.53 934.761 750.53C934.761 750.53 533.798 458.762 333.317 485.753C333.317 485.753 1216.21 514.673 1543.27 948.47" stroke="#3F3D56" stroke-width="2" stroke-miterlimit="10"/>
<path id="Vector_28" d="M333.317 504.391C343.608 504.391 351.951 496.046 351.951 485.753C351.951 475.46 343.608 467.116 333.317 467.116C323.025 467.116 314.682 475.46 314.682 485.753C314.682 496.046 323.025 504.391 333.317 504.391Z" fill="#3F3D56"/>
<path id="Vector_29" d="M501.67 902.841C511.961 902.841 520.304 894.497 520.304 884.204C520.304 873.911 511.961 865.566 501.67 865.566C491.378 865.566 483.035 873.911 483.035 884.204C483.035 894.497 491.378 902.841 501.67 902.841Z" fill="#3F3D56"/>
<path id="Vector_30" d="M1215.56 501.82C1225.85 501.82 1234.2 493.476 1234.2 483.183C1234.2 472.89 1225.85 464.546 1215.56 464.546C1205.27 464.546 1196.93 472.89 1196.93 483.183C1196.93 493.476 1205.27 501.82 1215.56 501.82Z" fill="#3F3D56"/>
<path id="Vector_31" d="M1543.27 967.107C1553.56 967.107 1561.91 958.763 1561.91 948.47C1561.91 938.177 1553.56 929.833 1543.27 929.833C1532.98 929.833 1524.64 938.177 1524.64 948.47C1524.64 958.763 1532.98 967.107 1543.27 967.107Z" fill="#3F3D56"/>
<path id="Vector_32" d="M934.761 769.167C945.052 769.167 953.395 760.823 953.395 750.53C953.395 740.237 945.052 731.893 934.761 731.893C924.469 731.893 916.126 740.237 916.126 750.53C916.126 760.823 924.469 769.167 934.761 769.167Z" fill="#3F3D56"/>
</g>
</svg>
